{
    "asset" : {
        "generator" : "Khronos glTF Blender I/O v3.4.50",
        "version" : "2.0"
    },
    "extensionsUsed" : [
        "KHR_materials_specular",
        "KHR_materials_ior"
    ],
    "scene" : 0,
    "scenes" : [
        {
            "name" : "Scene",
            "nodes" : [
                0
            ]
        }
    ],
    "nodes" : [
        {
            "extras" : {
                "sparkar_optimization" : {
                    "InvertedReducePercentage" : 0.0
                },
                "spark_blender_addon" : 1
            },
            "mesh" : 0,
            "name" : "flowers",
            "rotation" : [
                0,
                0.4035681188106537,
                0,
                0.9149495959281921
            ],
            "scale" : [
                0.3177092671394348,
                0.3382869362831116,
                0.3177092671394348
            ],
            "translation" : [
                1.5228880643844604,
                0.9571952819824219,
                1.5109981298446655
            ]
        }
    ],
    "materials" : [
        {
            "doubleSided" : true,
            "name" : "Navy",
            "pbrMetallicRoughness" : {
                "baseColorFactor" : [
                    0,
                    0.002180318580940366,
                    0.1375831812620163,
                    1
                ],
                "metallicFactor" : 0,
                "roughnessFactor" : 0.5
            }
        },
        {
            "doubleSided" : true,
            "emissiveFactor" : [
                0.6729291062493488,
                0.6594859221501039,
                0.47362180461916026
            ],
            "extensions" : {
                "KHR_materials_specular" : {
                    "specularColorFactor" : [
                        0,
                        0,
                        0
                    ]
                },
                "KHR_materials_ior" : {
                    "ior" : 1.4500000476837158
                }
            },
            "name" : "EWhite2",
            "pbrMetallicRoughness" : {
                "baseColorFactor" : [
                    1,
                    0.9904630184173584,
                    0.7373462915420532,
                    1
                ],
                "metallicFactor" : 0
            }
        },
        {
            "doubleSided" : true,
            "emissiveFactor" : [
                0.6859340071678162,
                0.4375460147857666,
                0.033114999532699585
            ],
            "extensions" : {
                "KHR_materials_specular" : {
                    "specularColorFactor" : [
                        0,
                        0,
                        0
                    ]
                },
                "KHR_materials_ior" : {
                    "ior" : 1.4500000476837158
                }
            },
            "name" : "EYellow",
            "pbrMetallicRoughness" : {
                "baseColorFactor" : [
                    0.6618639826774597,
                    0.4901849925518036,
                    0.12288100272417068,
                    1
                ],
                "metallicFactor" : 0
            }
        }
    ],
    "meshes" : [
        {
            "name" : "NurbsPath.003",
            "primitives" : [
                {
                    "attributes" : {
                        "POSITION" : 0,
                        "TEXCOORD_0" : 1,
                        "NORMAL" : 2
                    },
                    "indices" : 3,
                    "material" : 0
                },
                {
                    "attributes" : {
                        "POSITION" : 4,
                        "TEXCOORD_0" : 5,
                        "NORMAL" : 6
                    },
                    "indices" : 7,
                    "material" : 1
                },
                {
                    "attributes" : {
                        "POSITION" : 8,
                        "TEXCOORD_0" : 9,
                        "NORMAL" : 10
                    },
                    "indices" : 11,
                    "material" : 2
                }
            ]
        }
    ],
    "accessors" : [
        {
            "bufferView" : 0,
            "componentType" : 5126,
            "count" : 1024,
            "max" : [
                1.7916829586029053,
                2.960744857788086,
                0.33647769689559937
            ],
            "min" : [
                -3.681525707244873,
                -3.3932507038116455,
                -15.342288970947266
            ],
            "type" : "VEC3"
        },
        {
            "bufferView" : 1,
            "componentType" : 5126,
            "count" : 1024,
            "type" : "VEC2"
        },
        {
            "bufferView" : 2,
            "componentType" : 5126,
            "count" : 1024,
            "type" : "VEC3"
        },
        {
            "bufferView" : 3,
            "componentType" : 5123,
            "count" : 5523,
            "type" : "SCALAR"
        },
        {
            "bufferView" : 4,
            "componentType" : 5126,
            "count" : 49693,
            "max" : [
                2.9745407104492188,
                3.1828689575195312,
                0.5270733833312988
            ],
            "min" : [
                -4.390501022338867,
                0.41471660137176514,
                -12.665858268737793
            ],
            "type" : "VEC3"
        },
        {
            "bufferView" : 5,
            "componentType" : 5126,
            "count" : 49693,
            "type" : "VEC2"
        },
        {
            "bufferView" : 6,
            "componentType" : 5126,
            "count" : 49693,
            "type" : "VEC3"
        },
        {
            "bufferView" : 7,
            "componentType" : 5123,
            "count" : 54216,
            "type" : "SCALAR"
        },
        {
            "bufferView" : 8,
            "componentType" : 5126,
            "count" : 5608,
            "max" : [
                -1.585886001586914,
                2.8651626110076904,
                -10.646738052368164
            ],
            "min" : [
                -3.464754104614258,
                1.5124677419662476,
                -12.246147155761719
            ],
            "type" : "VEC3"
        },
        {
            "bufferView" : 9,
            "componentType" : 5126,
            "count" : 5608,
            "type" : "VEC2"
        },
        {
            "bufferView" : 10,
            "componentType" : 5126,
            "count" : 5608,
            "type" : "VEC3"
        },
        {
            "bufferView" : 11,
            "componentType" : 5123,
            "count" : 6048,
            "type" : "SCALAR"
        }
    ],
    "bufferViews" : [
        {
            "buffer" : 0,
            "byteLength" : 12288,
            "byteOffset" : 0,
            "target" : 34962
        },
        {
            "buffer" : 0,
            "byteLength" : 8192,
            "byteOffset" : 12288,
            "target" : 34962
        },
        {
            "buffer" : 0,
            "byteLength" : 12288,
            "byteOffset" : 20480,
            "target" : 34962
        },
        {
            "buffer" : 0,
            "byteLength" : 11046,
            "byteOffset" : 32768,
            "target" : 34963
        },
        {
            "buffer" : 0,
            "byteLength" : 596316,
            "byteOffset" : 43816,
            "target" : 34962
        },
        {
            "buffer" : 0,
            "byteLength" : 397544,
            "byteOffset" : 640132,
            "target" : 34962
        },
        {
            "buffer" : 0,
            "byteLength" : 596316,
            "byteOffset" : 1037676,
            "target" : 34962
        },
        {
            "buffer" : 0,
            "byteLength" : 108432,
            "byteOffset" : 1633992,
            "target" : 34963
        },
        {
            "buffer" : 0,
            "byteLength" : 67296,
            "byteOffset" : 1742424,
            "target" : 34962
        },
        {
            "buffer" : 0,
            "byteLength" : 44864,
            "byteOffset" : 1809720,
            "target" : 34962
        },
        {
            "buffer" : 0,
            "byteLength" : 67296,
            "byteOffset" : 1854584,
            "target" : 34962
        },
        {
            "buffer" : 0,
            "byteLength" : 12096,
            "byteOffset" : 1921880,
            "target" : 34963
        }
    ],
    "buffers" : [
        {
            "byteLength" : 1933976,
            "uri" : "data:application/octet-stream;base64,"
        }
    ]
}
